<?xml version="1.0" encoding="utf-8"?>
<!-- Generator: Adobe Illustrator 18.0.0, SVG Export Plug-In . SVG Version: 6.00 Build 0)  -->
<!DOCTYPE svg PUBLIC "-//W3C//DTD SVG 1.1//EN" "http://www.w3.org/Graphics/SVG/1.1/DTD/svg11.dtd">
<svg version="1.1" id="Layer_1" xmlns="http://www.w3.org/2000/svg" xmlns:xlink="http://www.w3.org/1999/xlink" x="0px" y="0px"
	 viewBox="0 0 288 216" enable-background="new 0 0 288 216" xml:space="preserve">
<circle fill="none" cx="144" cy="108" r="78.3"/>
<g id="XMLID_1_">
	<g>
		<path fill="none" d="M144,189v27c-34.3,0-64.8-16-84.6-40.8l21-17c5.6,7.1,12.4,13.3,20.1,18.2c-0.2,0.7-0.3,1.5-0.3,2.3
			c0,5.7,4.7,10.4,10.4,10.4c3.3,0,6.3-1.5,8.2-4C126.7,187.6,135.2,189,144,189z"/>
		<path fill="none" d="M144,149.5v34.1c-8.1,0-15.8-1.3-23.1-3.6c0.1-0.5,0.1-0.9,0.1-1.4c0-5.7-4.7-10.4-10.4-10.4
			c-3,0-5.7,1.3-7.6,3.3c-7-4.6-13.3-10.2-18.4-16.8l26.5-21.4C118.7,143.2,130.6,149.5,144,149.5z"/>
		<path fill="none" stroke="#00FFD5" stroke-miterlimit="10" d="M249.4,84.2c1.7,7.6,2.6,15.6,2.6,23.8c0,25.4-8.8,48.7-23.4,67.1
			l-21-17c6.8-8.6,11.8-18.5,14.7-29.4c5.4-0.4,9.6-4.9,9.6-10.4c0-4.5-2.9-8.3-6.9-9.8c0-0.2,0-0.4,0-0.6c0-6.2-0.7-12.3-2-18.2
			L249.4,84.2L249.4,84.2z"/>
		<path fill="none" stroke="#00FFD5" stroke-miterlimit="10" d="M219.6,108c0,0,0,0.1,0,0.2c-4.9,0.9-8.5,5.1-8.5,10.2
			c0,4.1,2.4,7.7,5.9,9.4c-2.7,10-7.4,19.1-13.6,27l-26.5-21.4c5.4-7,8.6-15.8,8.6-25.3c0-3.4-0.4-6.8-1.2-10l33.4-7.1
			C218.9,96.4,219.6,102.1,219.6,108z"/>
		<path fill="#00FFFF" stroke="#00FFD5" stroke-miterlimit="10" d="M192.5,11.5L192.5,11.5l-12.3,24.1c-8-4-16.8-6.8-26-7.9
			c-1-4.7-5.2-8.3-10.2-8.3s-9.2,3.6-10.2,8.3c-9.3,1.2-18,3.9-26,7.9L95.5,11.5C110.1,4.1,126.6,0,144,0S177.9,4.1,192.5,11.5z"/>
		<path fill="#00FFFF" stroke="#00FFD5" stroke-miterlimit="10" d="M177.8,40.3l-15.5,30.4c-5.5-2.7-11.7-4.2-18.3-4.2
			s-12.8,1.5-18.3,4.2l-15.5-30.4c7.4-3.7,15.4-6.2,23.9-7.3c1.4,4.1,5.3,7.1,9.8,7.1s8.4-3,9.8-7.1
			C162.4,34.1,170.4,36.6,177.8,40.3z"/>
	</g>
	<g>
		<line fill="none" stroke="#3F3F3F" stroke-miterlimit="10" x1="223" y1="89.8" x2="249.4" y2="84.2"/>
		<line fill="none" stroke="#3F3F3F" stroke-miterlimit="10" x1="184.3" y1="98" x2="217.7" y2="91"/>
		<line fill="none" stroke="#3F3F3F" stroke-miterlimit="10" x1="207.6" y1="158.1" x2="228.6" y2="175.2"/>
		<polyline fill="none" stroke="#3F3F3F" stroke-miterlimit="10" points="176.9,133.3 176.9,133.3 203.4,154.7 		"/>
		<line fill="none" stroke="#3F3F3F" stroke-miterlimit="10" x1="144" y1="189" x2="144" y2="216"/>
		<line fill="none" stroke="#3F3F3F" stroke-miterlimit="10" x1="144" y1="149.5" x2="144" y2="183.6"/>
		<line fill="none" stroke="#3F3F3F" stroke-miterlimit="10" x1="80.4" y1="158.1" x2="59.4" y2="175.2"/>
		<polyline fill="none" stroke="#3F3F3F" stroke-miterlimit="10" points="111.1,133.3 111.1,133.3 84.6,154.7 		"/>
		<line fill="none" stroke="#3F3F3F" stroke-miterlimit="10" x1="65" y1="89.8" x2="38.6" y2="84.2"/>
		<line fill="none" stroke="#3F3F3F" stroke-miterlimit="10" x1="103.7" y1="98" x2="70.3" y2="91"/>
		<path fill="none" stroke="#3F3F3F" stroke-miterlimit="10" d="M162.3,70.7c10.9,5.3,19.1,15.3,22,27.3c0.8,3.2,1.2,6.5,1.2,10
			c0,9.5-3.2,18.3-8.6,25.3c-7.6,9.9-19.5,16.2-32.9,16.2s-25.3-6.4-32.9-16.2c-5.4-7-8.6-15.8-8.6-25.3c0-3.4,0.4-6.8,1.2-10
			c3-12,11.1-22,22-27.3"/>
		<path fill="none" stroke="#3F3F3F" stroke-miterlimit="10" d="M125.7,70.7c5.5-2.7,11.7-4.2,18.3-4.2s12.8,1.5,18.3,4.2"/>
		<line fill="none" stroke="#3F3F3F" stroke-miterlimit="10" x1="180.2" y1="35.5" x2="192.5" y2="11.5"/>
		<polyline fill="none" stroke="#3F3F3F" stroke-miterlimit="10" points="162.3,70.7 162.3,70.7 177.8,40.3 		"/>
		<path fill="none" stroke="#3F3F3F" stroke-miterlimit="10" d="M249.4,84.2c1.7,7.6,2.6,15.6,2.6,23.8c0,25.4-8.8,48.7-23.4,67.1
			C208.8,200,178.3,216,144,216s-64.8-16-84.6-40.8C44.8,156.7,36,133.4,36,108c0-8.2,0.9-16.1,2.6-23.8
			c7.2-31.9,28.4-58.4,56.9-72.7C110.1,4.1,126.6,0,144,0s33.9,4.1,48.5,11.5C220.9,25.8,242.2,52.3,249.4,84.2z"/>
		<path fill="none" stroke="#3F3F3F" stroke-miterlimit="10" d="M59.4,175.2"/>
		<line fill="none" stroke="#3F3F3F" stroke-miterlimit="10" x1="107.8" y1="35.5" x2="95.5" y2="11.5"/>
		<polyline fill="none" stroke="#3F3F3F" stroke-miterlimit="10" points="125.7,70.7 125.7,70.7 110.2,40.3 		"/>
		<path fill="none" stroke="#3F3F3F" stroke-miterlimit="10" d="M103,171.5c-7-4.6-13.3-10.2-18.4-16.8
			c-10.1-12.9-16.2-29.1-16.2-46.7c0-5.9,0.7-11.6,1.9-17c5.1-22.2,20-40.7,39.9-50.6c7.4-3.7,15.4-6.2,23.9-7.3"/>
		<path fill="none" stroke="#3F3F3F" stroke-miterlimit="10" d="M217,127.8c-2.7,10-7.4,19.1-13.6,27
			c-13.8,17.6-35.3,28.9-59.4,28.9c-8.1,0-15.8-1.3-23.1-3.6"/>
		<path fill="none" stroke="#3F3F3F" stroke-miterlimit="10" d="M153.8,33.1c8.5,1.1,16.5,3.6,23.9,7.3c19.9,10,34.8,28.4,39.9,50.6
			c1.3,5.5,1.9,11.2,1.9,17c0,0,0,0.1,0,0.2"/>
		<path fill="none" stroke="#3F3F3F" stroke-miterlimit="10" d="M225,108.6c0-0.2,0-0.4,0-0.6c0-6.2-0.7-12.3-2-18.2
			c-5.4-23.8-21.4-43.6-42.7-54.3c-8-4-16.8-6.8-26-7.9"/>
		<path fill="none" stroke="#3F3F3F" stroke-miterlimit="10" d="M118.8,185c7.9,2.6,16.4,4,25.2,4c25.8,0,48.8-12.1,63.6-30.9
			c6.8-8.6,11.8-18.5,14.7-29.4"/>
		<path fill="none" stroke="#3F3F3F" stroke-miterlimit="10" d="M133.8,27.6c-9.3,1.2-18,3.9-26,7.9C86.4,46.2,70.5,66,65,89.8
			c-1.3,5.9-2,11.9-2,18.2c0,18.9,6.5,36.3,17.4,50.1c5.6,7.1,12.4,13.3,20.1,18.2"/>
		<path fill="none" stroke="#3F3F3F" stroke-miterlimit="10" d="M154.2,27.6c-1-4.7-5.2-8.3-10.2-8.3s-9.2,3.6-10.2,8.3"/>
		<path fill="none" stroke="#3F3F3F" stroke-miterlimit="10" d="M134.2,33.1c1.4,4.1,5.3,7.1,9.8,7.1s8.4-3,9.8-7.1"/>
		<path fill="none" stroke="#3F3F3F" stroke-miterlimit="10" d="M100.5,176.3c-0.2,0.7-0.3,1.5-0.3,2.3c0,5.7,4.7,10.4,10.4,10.4
			c3.3,0,6.3-1.5,8.2-4"/>
		<path fill="none" stroke="#3F3F3F" stroke-miterlimit="10" d="M120.9,180c0.1-0.5,0.1-0.9,0.1-1.4c0-5.7-4.7-10.4-10.4-10.4
			c-3,0-5.7,1.3-7.6,3.3"/>
		<path fill="none" stroke="#3F3F3F" stroke-miterlimit="10" d="M222.3,128.8c5.4-0.4,9.6-4.9,9.6-10.4c0-4.5-2.9-8.3-6.9-9.8"/>
		<path fill="none" stroke="#3F3F3F" stroke-miterlimit="10" d="M219.6,108.2c-4.9,0.9-8.5,5.1-8.5,10.2c0,4.1,2.4,7.7,5.9,9.4"/>
	</g>
</g>
<g id="XMLID_5_">
	<g>
		<path fill="none" stroke="#00FFAA" stroke-miterlimit="10" d="M144,189v27c-34.3,0-64.8-16-84.6-40.8l21-17
			c5.6,7.1,12.4,13.3,20.1,18.2c-0.2,0.7-0.3,1.5-0.3,2.3c0,5.7,4.7,10.4,10.4,10.4c3.3,0,6.3-1.5,8.2-4
			C126.7,187.6,135.2,189,144,189z"/>
		<path fill="none" stroke="#00FFAA" stroke-miterlimit="10" d="M144,149.5v34.1c-8.1,0-15.8-1.3-23.1-3.6c0.1-0.5,0.1-0.9,0.1-1.4
			c0-5.7-4.7-10.4-10.4-10.4c-3,0-5.7,1.3-7.6,3.3c-7-4.6-13.3-10.2-18.4-16.8l26.5-21.4C118.7,143.2,130.6,149.5,144,149.5z"/>
		<path fill="none" stroke="#00FFD5" stroke-miterlimit="10" d="M249.4,84.2c1.7,7.6,2.6,15.6,2.6,23.8c0,25.4-8.8,48.7-23.4,67.1
			l-21-17c6.8-8.6,11.8-18.5,14.7-29.4c5.4-0.4,9.6-4.9,9.6-10.4c0-4.5-2.9-8.3-6.9-9.8c0-0.2,0-0.4,0-0.6c0-6.2-0.7-12.3-2-18.2
			L249.4,84.2L249.4,84.2z"/>
		<path fill="none" stroke="#00FFD5" stroke-miterlimit="10" d="M219.6,108c0,0,0,0.1,0,0.2c-4.9,0.9-8.5,5.1-8.5,10.2
			c0,4.1,2.4,7.7,5.9,9.4c-2.7,10-7.4,19.1-13.6,27l-26.5-21.4c5.4-7,8.6-15.8,8.6-25.3c0-3.4-0.4-6.8-1.2-10l33.4-7.1
			C218.9,96.4,219.6,102.1,219.6,108z"/>
	</g>
	<line fill="none" stroke="#00FFD5" stroke-miterlimit="10" x1="223" y1="89.8" x2="249.4" y2="84.2"/>
	<line fill="none" stroke="#00FFD5" stroke-miterlimit="10" x1="184.3" y1="98" x2="217.7" y2="91"/>
	<line fill="none" stroke="#00FFD5" stroke-miterlimit="10" x1="207.6" y1="158.1" x2="228.6" y2="175.2"/>
	<polyline fill="none" stroke="#00FFD5" stroke-miterlimit="10" points="176.9,133.3 176.9,133.3 203.4,154.7 	"/>
	<line fill="none" stroke="#00FFAA" stroke-miterlimit="10" x1="144" y1="189" x2="144" y2="216"/>
	<line fill="none" stroke="#00FFAA" stroke-miterlimit="10" x1="144" y1="149.5" x2="144" y2="183.6"/>
	<line fill="none" stroke="#00FFAA" stroke-miterlimit="10" x1="80.4" y1="158.1" x2="59.4" y2="175.2"/>
	<path fill="none" stroke="#00FFAA" stroke-miterlimit="10" d="M144,216c-34.3,0-64.8-16-84.6-40.8"/>
	<path fill="none" stroke="#00FFD5" stroke-miterlimit="10" d="M249.4,84.2c1.7,7.6,2.6,15.6,2.6,23.8c0,25.4-8.8,48.7-23.4,67.1"/>
	<path fill="none" stroke="#00FFD5" stroke-miterlimit="10" d="M59.4,175.2"/>
	<path fill="none" stroke="#00FFAA" stroke-miterlimit="10" d="M144,183.6c-8.1,0-15.8-1.3-23.1-3.6"/>
	<path fill="none" stroke="#00FFD5" stroke-miterlimit="10" d="M217,127.8c-2.7,10-7.4,19.1-13.6,27"/>
	<path fill="none" stroke="#00FFD5" stroke-miterlimit="10" d="M217.7,91c1.3,5.5,1.9,11.2,1.9,17c0,0,0,0.1,0,0.2"/>
	<path fill="none" stroke="#00FFD5" stroke-miterlimit="10" d="M207.6,158.1c6.8-8.6,11.8-18.5,14.7-29.4"/>
	<path fill="none" stroke="#00FFAA" stroke-miterlimit="10" d="M118.8,185c7.9,2.6,16.4,4,25.2,4"/>
	<path fill="none" stroke="#00FFAA" stroke-miterlimit="10" d="M100.5,176.3c-0.2,0.7-0.3,1.5-0.3,2.3c0,5.7,4.7,10.4,10.4,10.4
		c3.3,0,6.3-1.5,8.2-4"/>
	<path fill="none" stroke="#00FFAA" stroke-miterlimit="10" d="M120.9,180c0.1-0.5,0.1-0.9,0.1-1.4c0-5.7-4.7-10.4-10.4-10.4
		c-3,0-5.7,1.3-7.6,3.3"/>
	<path fill="none" stroke="#00FFD5" stroke-miterlimit="10" d="M222.3,128.8c5.4-0.4,9.6-4.9,9.6-10.4c0-4.5-2.9-8.3-6.9-9.8"/>
	<path fill="none" stroke="#00FFD5" stroke-miterlimit="10" d="M219.6,108.2c-4.9,0.9-8.5,5.1-8.5,10.2c0,4.1,2.4,7.7,5.9,9.4"/>
</g>
<circle fill="#00FFFF" stroke="#3F3F3F" stroke-miterlimit="10" cx="144" cy="29.7" r="7.2"/>
</svg>
