<?xml version="1.0" encoding="utf-8"?>
<!-- Generator: Adobe Illustrator 18.0.0, SVG Export Plug-In . SVG Version: 6.00 Build 0)  -->
<!DOCTYPE svg PUBLIC "-//W3C//DTD SVG 1.1//EN" "http://www.w3.org/Graphics/SVG/1.1/DTD/svg11.dtd">
<svg version="1.1" xmlns="http://www.w3.org/2000/svg" xmlns:xlink="http://www.w3.org/1999/xlink" x="0px" y="0px"
	 viewBox="0 0 602 602" enable-background="new 0 0 602 602" xml:space="preserve">
	<g id="Layer_3">
		<path fill="none" stroke="#148CC1" stroke-width="2" stroke-miterlimit="10" d="M316,92c0,3.6-1.3,6.9-3.3,9.4
			c-2.8,3.4-7,5.6-11.7,5.6s-8.9-2.2-11.7-5.6c-2.1-2.6-3.3-5.9-3.3-9.4c0-1.1,0.1-2.1,0.3-3.1c0.9-4.5,3.9-8.2,7.9-10.2
			c2-1,4.4-1.6,6.8-1.6c2.5,0,4.8,0.6,6.8,1.6c4,2,6.9,5.8,7.9,10.2C315.9,89.9,316,90.9,316,92z"/>
		<path fill="none" d="M316,510c0,3.6-1.3,6.9-3.3,9.4c-2.8,3.4-7,5.6-11.7,5.6s-8.9-2.2-11.7-5.6c-2.1-2.6-3.3-5.9-3.3-9.4
			c0-1.1,0.1-2.1,0.3-3.1c0.9-4.5,3.9-8.2,7.9-10.2c2-1,4.4-1.6,6.8-1.6c2.5,0,4.8,0.6,6.8,1.6c4,2,6.9,5.8,7.9,10.2
			C315.9,507.9,316,508.9,316,510z"/>
	</g>
</svg>
