<?xml version="1.0" encoding="utf-8"?>
<!-- Generator: Adobe Illustrator 18.0.0, SVG Export Plug-In . SVG Version: 6.00 Build 0)  -->
<!DOCTYPE svg PUBLIC "-//W3C//DTD SVG 1.1//EN" "http://www.w3.org/Graphics/SVG/1.1/DTD/svg11.dtd">
<svg version="1.1" id="Layer_1" xmlns="http://www.w3.org/2000/svg" xmlns:xlink="http://www.w3.org/1999/xlink" x="0px" y="0px"
	 viewBox="0 0 600 600" enable-background="new 0 0 600 600" xml:space="preserve">
<path fill="none" stroke="#000000" stroke-width="2" stroke-miterlimit="10" d="M315,300c0,3.6-1.3,6.9-3.3,9.4
	c-2.8,3.4-7,5.6-11.7,5.6s-8.9-2.2-11.7-5.6c-2.1-2.6-3.3-5.9-3.3-9.4c0-1.1,0.1-2.1,0.3-3.1c0.9-4.5,3.9-8.2,7.9-10.2
	c2-1,4.4-1.6,6.8-1.6c2.5,0,4.8,0.6,6.8,1.6c4,2,6.9,5.8,7.9,10.2C314.9,297.9,315,298.9,315,300z"/>
</svg>
