<?xml version="1.0" encoding="utf-8"?>
<!-- Generator: Adobe Illustrator 18.0.0, SVG Export Plug-In . SVG Version: 6.00 Build 0)  -->
<!DOCTYPE svg PUBLIC "-//W3C//DTD SVG 1.1//EN" "http://www.w3.org/Graphics/SVG/1.1/DTD/svg11.dtd">
<svg version="1.1" xmlns="http://www.w3.org/2000/svg" xmlns:xlink="http://www.w3.org/1999/xlink" x="0px" y="0px"
	 viewBox="0 0 602 602" enable-background="new 0 0 602 602" xml:space="preserve">
<g id="Layer_2" display="none">
	<path display="inline" fill="none" stroke="#000000" stroke-miterlimit="10" d="M510,301c0,49.8-17.4,95.6-46.6,131.5
		C425.1,479.8,366.6,510,301,510s-124.1-30.2-162.4-77.5C109.4,396.6,92,350.8,92,301c0-14.9,1.6-29.4,4.5-43.5
		c13.2-62.4,54.3-114.6,109.6-142.8C234.6,100.2,266.8,92,301,92s66.4,8.2,94.9,22.7c55.3,28.2,96.4,80.4,109.6,142.8
		C508.4,271.6,510,286.1,510,301z"/>
</g>
<g id="Layer_4">
</g>
<g id="Layer_1">
	<path fill="none" stroke="#000000" stroke-width="2" stroke-miterlimit="10" d="M133.9,436.3l-0.8,0.6l-65.3,52.9
		C26,438.2,1,372.5,1,301c0-21.4,2.2-42.3,6.5-62.4l82.2,17.5l1,0.2C87.6,270.7,86,285.7,86,301c0,10.2,0.7,20.3,2.1,30.1
		c-6.7,3.5-11.3,10.5-11.3,18.6c0,11.5,9.3,20.9,20.8,21v0.1C105.8,394.9,118.2,417,133.9,436.3z"/>
	<path fill="none" stroke="#000000" stroke-width="2" stroke-miterlimit="10" d="M207.7,376.5l-64.5,52.2
		c-14.7-18.1-26.3-38.8-34.1-61.3c5.8-3.7,9.7-10.3,9.7-17.7c0-10.9-8.3-19.8-18.9-20.9c-1.2-9.1-1.9-18.4-1.9-27.9
		c0-14.5,1.5-28.6,4.4-42.2l81.2,17.3c-1.7,8.1-2.6,16.4-2.6,25C181,329.6,191,355.9,207.7,376.5z"/>
</g>
<g id="Layer_3">
</g>
</svg>
