<?xml version="1.0" encoding="utf-8"?>
<!-- Generator: Adobe Illustrator 18.0.0, SVG Export Plug-In . SVG Version: 6.00 Build 0)  -->
<!DOCTYPE svg PUBLIC "-//W3C//DTD SVG 1.1//EN" "http://www.w3.org/Graphics/SVG/1.1/DTD/svg11.dtd">
<svg version="1.1" xmlns="http://www.w3.org/2000/svg" xmlns:xlink="http://www.w3.org/1999/xlink" x="0px" y="0px"
	 viewBox="0 0 602 602" enable-background="new 0 0 602 602" xml:space="preserve">
<g id="Layer_2" display="none">
	<path display="inline" fill="none" stroke="#000000" stroke-miterlimit="10" d="M510,301c0,49.8-17.4,95.6-46.6,131.5
		C425.1,479.8,366.6,510,301,510s-124.1-30.2-162.4-77.5C109.4,396.6,92,350.8,92,301c0-14.9,1.6-29.4,4.5-43.5
		c13.2-62.4,54.3-114.6,109.6-142.8C234.6,100.2,266.8,92,301,92s66.4,8.2,94.9,22.7c55.3,28.2,96.4,80.4,109.6,142.8
		C508.4,271.6,510,286.1,510,301z"/>
</g>
<g id="Layer_4">
</g>
<g id="Layer_1">
	<path fill="none" stroke="#000000" stroke-width="2" stroke-miterlimit="10" d="M499.6,258.8c2.9,13.6,4.4,27.7,4.4,42.2
		c0,9.5-0.6,18.8-1.9,27.9c-4.6,0.5-9.2,2.5-12.7,6c-8.2,8.2-8.2,21.5,0,29.7c1.1,1.1,2.2,2,3.5,2.8c-7.8,22.5-19.4,43.2-34.1,61.3
		l-64.5-52.2C411,355.9,421,329.6,421,301c0-8.6-0.9-16.9-2.6-25L499.6,258.8z"/>
	<path fill="none" stroke="#000000" stroke-width="2" stroke-miterlimit="10" d="M594.5,238.6c4.3,20.1,6.5,41,6.5,62.4
		c0,71.5-25,137.2-66.8,188.8l-65.3-52.9l-0.8-0.6c15.7-19.4,28.1-41.5,36.3-65.5c5.3-0.1,10.6-2.1,14.6-6.1
		c8.2-8.2,8.2-21.5,0-29.7c-1.6-1.6-3.3-2.8-5.2-3.8h0c1.4-9.9,2.1-19.9,2.1-30.1c0-15.3-1.6-30.3-4.7-44.7l1-0.2L594.5,238.6z"/>
</g>
<g id="Layer_3">
</g>
</svg>
