<?xml version="1.0" encoding="utf-8"?>
<!-- Generator: Adobe Illustrator 18.0.0, SVG Export Plug-In . SVG Version: 6.00 Build 0)  -->
<!DOCTYPE svg PUBLIC "-//W3C//DTD SVG 1.1//EN" "http://www.w3.org/Graphics/SVG/1.1/DTD/svg11.dtd">
<svg version="1.1" xmlns="http://www.w3.org/2000/svg" xmlns:xlink="http://www.w3.org/1999/xlink" x="0px" y="0px"
	 viewBox="0 0 602 602" enable-background="new 0 0 602 602" xml:space="preserve">
<g id="Layer_2" display="none">
	<path display="inline" fill="none" stroke="#000000" stroke-miterlimit="10" d="M510,301c0,49.8-17.4,95.6-46.6,131.5
		C425.1,479.8,366.6,510,301,510s-124.1-30.2-162.4-77.5C109.4,396.6,92,350.8,92,301c0-14.9,1.6-29.4,4.5-43.5
		c13.2-62.4,54.3-114.6,109.6-142.8C234.6,100.2,266.8,92,301,92s66.4,8.2,94.9,22.7c55.3,28.2,96.4,80.4,109.6,142.8
		C508.4,271.6,510,286.1,510,301z"/>
</g>
<g id="Layer_4">
</g>
<g id="Layer_1">
	<path fill="none" stroke="#000000" stroke-width="2" stroke-miterlimit="10" d="M468.9,436.9l65.3,52.9
		C479.1,557.6,395.1,601,301,601v-84v-1c25.9,0,50.8-4.6,73.8-13c3.9,4.7,9.7,7.6,16.2,7.6c11.6,0,21-9.4,21-21
		c0-1.4-0.2-2.9-0.4-4.2h0c21.6-13,40.7-29.6,56.5-49.1L468.9,436.9z"/>
	<path fill="none" stroke="#000000" stroke-width="2" stroke-miterlimit="10" d="M394.3,376.5l64.5,52.2
		c-14.8,18.2-32.7,33.9-52.9,46.1v0c-3.8-3.8-9.1-6.2-14.9-6.2c-11.6,0-21,9.4-21,21c0,0.8,0,1.5,0.1,2.3
		c-21.6,7.8-44.8,12.1-69.1,12.1v-83C338.7,421,372.3,403.7,394.3,376.5z"/>
</g>
<g id="Layer_3">
</g>
</svg>
