<?xml version="1.0" encoding="utf-8"?>
<!-- Generator: Adobe Illustrator 18.0.0, SVG Export Plug-In . SVG Version: 6.00 Build 0)  -->
<!DOCTYPE svg PUBLIC "-//W3C//DTD SVG 1.1//EN" "http://www.w3.org/Graphics/SVG/1.1/DTD/svg11.dtd">
<svg version="1.1" xmlns="http://www.w3.org/2000/svg" xmlns:xlink="http://www.w3.org/1999/xlink" x="0px" y="0px"
	 viewBox="0 0 602 602" enable-background="new 0 0 602 602" xml:space="preserve">
<g id="Layer_2" display="none">
	<path display="inline" fill="none" stroke="#000000" stroke-miterlimit="10" d="M510,301c0,49.8-17.4,95.6-46.6,131.5
		C425.1,479.8,366.6,510,301,510s-124.1-30.2-162.4-77.5C109.4,396.6,92,350.8,92,301c0-14.9,1.6-29.4,4.5-43.5
		c13.2-62.4,54.3-114.6,109.6-142.8C234.6,100.2,266.8,92,301,92s66.4,8.2,94.9,22.7c55.3,28.2,96.4,80.4,109.6,142.8
		C508.4,271.6,510,286.1,510,301z"/>
</g>
<g id="Layer_4">
</g>
<g id="Layer_1">
	<path fill="none" stroke="#000000" stroke-width="2" stroke-miterlimit="10" d="M301,421v83c-24.3,0-47.5-4.3-69.1-12.1
		c0.1-0.8,0.1-1.5,0.1-2.3c0-11.6-9.4-21-21-21c-5.8,0-11.1,2.4-14.9,6.2c-20.2-12.2-38.1-27.8-52.9-46.1l64.5-52.2
		C229.7,403.7,263.3,421,301,421z"/>
	<path fill="none" stroke="#000000" stroke-width="2" stroke-miterlimit="10" d="M301,517v84c-94.1,0-178.1-43.4-233.1-111.2
		l65.3-52.9l0.8-0.6c15.8,19.5,34.9,36.1,56.5,49.1c-0.3,1.4-0.4,2.8-0.4,4.2c0,11.6,9.4,21,21,21c6.5,0,12.3-3,16.2-7.6
		c23,8.4,47.9,13,73.8,13V517z"/>
</g>
<g id="Layer_3">
</g>
</svg>
