<?xml version="1.0" encoding="utf-8"?>
<!-- Generator: Adobe Illustrator 18.0.0, SVG Export Plug-In . SVG Version: 6.00 Build 0)  -->
<!DOCTYPE svg PUBLIC "-//W3C//DTD SVG 1.1//EN" "http://www.w3.org/Graphics/SVG/1.1/DTD/svg11.dtd">
<svg version="1.1" xmlns="http://www.w3.org/2000/svg" xmlns:xlink="http://www.w3.org/1999/xlink" x="0px" y="0px"
	 viewBox="0 0 602 602" enable-background="new 0 0 602 602" xml:space="preserve">
<g id="Layer_2" display="none">
	<path display="inline" fill="none" stroke="#000000" stroke-miterlimit="10" d="M510,301c0,49.8-17.4,95.6-46.6,131.5
		C425.1,479.8,366.6,510,301,510s-124.1-30.2-162.4-77.5C109.4,396.6,92,350.8,92,301c0-14.9,1.6-29.4,4.5-43.5
		c13.2-62.4,54.3-114.6,109.6-142.8C234.6,100.2,266.8,92,301,92s66.4,8.2,94.9,22.7c55.3,28.2,96.4,80.4,109.6,142.8
		C508.4,271.6,510,286.1,510,301z"/>
</g>
<g id="Layer_4">
</g>
<g id="Layer_1">
	<path fill="none" stroke="#000000" stroke-width="2" stroke-miterlimit="10" d="M398.6,109.4c-23.6-12-49.6-19.8-77.2-22.4
		C319.1,77.8,310.9,71,301,71s-18.1,6.8-20.4,15.9c-27.6,2.6-53.7,10.4-77.2,22.4l-0.4-0.9l-38.1-74.9C205.6,12.8,251.9,1,301,1
		s95.4,11.8,136.2,32.6l-38.2,74.9L398.6,109.4z"/>
	<path fill="none" stroke="#000000" stroke-width="2" stroke-miterlimit="10" d="M393.2,120.1l-37.7,74
		c-16.3-8.3-34.9-13.1-54.5-13.1s-38.1,4.7-54.5,13.1l-37.7-74c22.1-11.3,46.5-18.6,72.4-21.1c2.9,8.2,10.7,14,19.8,14
		s17-5.9,19.8-14C346.7,101.5,371.1,108.8,393.2,120.1z"/>
</g>
<g id="Layer_3">
</g>
</svg>
