<?xml version="1.0" encoding="utf-8"?>
<!-- Generator: Adobe Illustrator 18.0.0, SVG Export Plug-In . SVG Version: 6.00 Build 0)  -->
<!DOCTYPE svg PUBLIC "-//W3C//DTD SVG 1.1//EN" "http://www.w3.org/Graphics/SVG/1.1/DTD/svg11.dtd">
<svg version="1.1" xmlns="http://www.w3.org/2000/svg" xmlns:xlink="http://www.w3.org/1999/xlink" x="0px" y="0px"
	 viewBox="0 0 602 602" enable-background="new 0 0 602 602" xml:space="preserve">
<g id="Layer_2" display="none">
	<path display="inline" fill="none" stroke="#000000" stroke-miterlimit="10" d="M510,301c0,49.8-17.4,95.6-46.6,131.5
		C425.1,479.8,366.6,510,301,510s-124.1-30.2-162.4-77.5C109.4,396.6,92,350.8,92,301c0-14.9,1.6-29.4,4.5-43.5
		c13.2-62.4,54.3-114.6,109.6-142.8C234.6,100.2,266.8,92,301,92s66.4,8.2,94.9,22.7c55.3,28.2,96.4,80.4,109.6,142.8
		C508.4,271.6,510,286.1,510,301z"/>
</g>
<g id="Layer_4">
</g>
<g id="Layer_1">
	<path fill="none" stroke="#000000" stroke-width="2" stroke-miterlimit="10" d="M208.8,120.1l37.7,74c-31.8,16.2-55.3,46.1-62.9,82
		l-81.2-17.3c4.9-23.4,13.9-45.4,26.2-65.1c2.1,0.7,4.3,1,6.6,1c11.6,0,21-9.4,21-21c0-4.2-1.2-8.2-3.4-11.5v0
		C168.8,145.2,187.7,130.9,208.8,120.1z"/>
	<path fill="none" stroke="#000000" stroke-width="2" stroke-miterlimit="10" d="M202.9,108.5l0.4,0.9
		c-22.5,11.5-42.7,26.8-59.8,45.1c-2.6-1.1-5.4-1.8-8.4-1.8c-11.6,0-21,9.4-21,21c0,4.9,1.7,9.5,4.6,13.1
		c-13.2,21-22.8,44.4-28.1,69.4l-1-0.2L7.5,238.6c19-89.6,77.9-164.4,157.3-205L202.9,108.5z"/>
</g>
<g id="Layer_3">
</g>
</svg>
