<?xml version="1.0" encoding="utf-8"?>
<!-- Generator: Adobe Illustrator 18.0.0, SVG Export Plug-In . SVG Version: 6.00 Build 0)  -->
<!DOCTYPE svg PUBLIC "-//W3C//DTD SVG 1.1//EN" "http://www.w3.org/Graphics/SVG/1.1/DTD/svg11.dtd">
<svg version="1.1" xmlns="http://www.w3.org/2000/svg" xmlns:xlink="http://www.w3.org/1999/xlink" x="0px" y="0px"
	 viewBox="0 0 602 602" enable-background="new 0 0 602 602" xml:space="preserve">
<g id="Layer_2" display="none">
	<path display="inline" fill="none" stroke="#000000" stroke-miterlimit="10" d="M510,301c0,49.8-17.4,95.6-46.6,131.5
		C425.1,479.8,366.6,510,301,510s-124.1-30.2-162.4-77.5C109.4,396.6,92,350.8,92,301c0-14.9,1.6-29.4,4.5-43.5
		c13.2-62.4,54.3-114.6,109.6-142.8C234.6,100.2,266.8,92,301,92s66.4,8.2,94.9,22.7c55.3,28.2,96.4,80.4,109.6,142.8
		C508.4,271.6,510,286.1,510,301z"/>
</g>
<g id="Layer_4">
</g>
<g id="Layer_1">
	<path fill="none" stroke="#000000" stroke-width="2" stroke-miterlimit="10" d="M512.3,256.1l-1,0.2c-5.3-25-14.9-48.5-28.1-69.4
		c2.9-3.6,4.6-8.1,4.6-13.1c0-11.6-9.4-21-21-21c-3,0-5.8,0.6-8.4,1.8c-17.1-18.3-37.3-33.7-59.8-45.1l0.4-0.9l38.2-74.9
		c79.4,40.5,138.3,115.4,157.3,205L512.3,256.1z"/>
	<path fill="none" stroke="#000000" stroke-width="2" stroke-miterlimit="10" d="M393.2,120.1c21.1,10.8,40,25.1,56,42.2
		c-2.2,3.3-3.4,7.2-3.4,11.5c0,11.6,9.4,21,21,21c2.3,0,4.5-0.4,6.6-1.1c12.3,19.7,21.3,41.6,26.2,65.1L418.4,276
		c-7.6-35.8-31.2-65.8-62.9-82L393.2,120.1z"/>
</g>
<g id="Layer_3">
</g>
</svg>
