<?xml version="1.0" encoding="utf-8"?>
<!-- Generator: Adobe Illustrator 18.0.0, SVG Export Plug-In . SVG Version: 6.00 Build 0)  -->
<!DOCTYPE svg PUBLIC "-//W3C//DTD SVG 1.1//EN" "http://www.w3.org/Graphics/SVG/1.1/DTD/svg11.dtd">
<svg version="1.1" id="Layer_1" xmlns="http://www.w3.org/2000/svg" xmlns:xlink="http://www.w3.org/1999/xlink" x="0px" y="0px"
	 viewBox="0 0 190 230" enable-background="new 0 0 190 230" xml:space="preserve">
<g>
	<path fill="#148CC1" d="M15,2c7.2,0,13,5.8,13,13s-5.8,13-13,13S2,22.2,2,15S7.8,2,15,2 M15,0C6.7,0,0,6.7,0,15s6.7,15,15,15
		s15-6.7,15-15S23.3,0,15,0L15,0z"/>
</g>
<g>
	<path fill="#148CC1" d="M55,2c7.2,0,13,5.8,13,13s-5.8,13-13,13s-13-5.8-13-13S47.8,2,55,2 M55,0c-8.3,0-15,6.7-15,15s6.7,15,15,15
		s15-6.7,15-15S63.3,0,55,0L55,0z"/>
</g>
<g>
	<path fill="#148CC1" d="M95,2c7.2,0,13,5.8,13,13s-5.8,13-13,13s-13-5.8-13-13S87.8,2,95,2 M95,0c-8.3,0-15,6.7-15,15s6.7,15,15,15
		s15-6.7,15-15S103.3,0,95,0L95,0z"/>
</g>
<g>
	<path fill="#148CC1" d="M135,2c7.2,0,13,5.8,13,13s-5.8,13-13,13s-13-5.8-13-13S127.8,2,135,2 M135,0c-8.3,0-15,6.7-15,15
		s6.7,15,15,15s15-6.7,15-15S143.3,0,135,0L135,0z"/>
</g>
<g>
	<path fill="#148CC1" d="M175,2c7.2,0,13,5.8,13,13s-5.8,13-13,13s-13-5.8-13-13S167.8,2,175,2 M175,0c-8.3,0-15,6.7-15,15
		s6.7,15,15,15s15-6.7,15-15S183.3,0,175,0L175,0z"/>
</g>
<g>
	<path fill="#148CC1" d="M15,42c7.2,0,13,5.8,13,13s-5.8,13-13,13S2,62.2,2,55S7.8,42,15,42 M15,40C6.7,40,0,46.7,0,55s6.7,15,15,15
		s15-6.7,15-15S23.3,40,15,40L15,40z"/>
</g>
<g>
	<path fill="#148CC1" d="M55,42c7.2,0,13,5.8,13,13s-5.8,13-13,13s-13-5.8-13-13S47.8,42,55,42 M55,40c-8.3,0-15,6.7-15,15
		s6.7,15,15,15s15-6.7,15-15S63.3,40,55,40L55,40z"/>
</g>
<g>
	<path fill="#148CC1" d="M95,42c7.2,0,13,5.8,13,13s-5.8,13-13,13s-13-5.8-13-13S87.8,42,95,42 M95,40c-8.3,0-15,6.7-15,15
		s6.7,15,15,15s15-6.7,15-15S103.3,40,95,40L95,40z"/>
</g>
<g>
	<path fill="#148CC1" d="M135,42c7.2,0,13,5.8,13,13s-5.8,13-13,13s-13-5.8-13-13S127.8,42,135,42 M135,40c-8.3,0-15,6.7-15,15
		s6.7,15,15,15s15-6.7,15-15S143.3,40,135,40L135,40z"/>
</g>
<g>
	<path fill="#148CC1" d="M175,42c7.2,0,13,5.8,13,13s-5.8,13-13,13s-13-5.8-13-13S167.8,42,175,42 M175,40c-8.3,0-15,6.7-15,15
		s6.7,15,15,15s15-6.7,15-15S183.3,40,175,40L175,40z"/>
</g>
<g>
	<path fill="#148CC1" d="M15,82c7.2,0,13,5.8,13,13s-5.8,13-13,13S2,102.2,2,95S7.8,82,15,82 M15,80C6.7,80,0,86.7,0,95
		c0,8.3,6.7,15,15,15s15-6.7,15-15C30,86.7,23.3,80,15,80L15,80z"/>
</g>
<g>
	<path fill="#148CC1" d="M55,82c7.2,0,13,5.8,13,13s-5.8,13-13,13s-13-5.8-13-13S47.8,82,55,82 M55,80c-8.3,0-15,6.7-15,15
		c0,8.3,6.7,15,15,15s15-6.7,15-15C70,86.7,63.3,80,55,80L55,80z"/>
</g>
<g>
	<path fill="#148CC1" d="M95,82c7.2,0,13,5.8,13,13s-5.8,13-13,13s-13-5.8-13-13S87.8,82,95,82 M95,80c-8.3,0-15,6.7-15,15
		c0,8.3,6.7,15,15,15s15-6.7,15-15C110,86.7,103.3,80,95,80L95,80z"/>
</g>
<g>
	<path fill="#148CC1" d="M135,82c7.2,0,13,5.8,13,13s-5.8,13-13,13s-13-5.8-13-13S127.8,82,135,82 M135,80c-8.3,0-15,6.7-15,15
		c0,8.3,6.7,15,15,15s15-6.7,15-15C150,86.7,143.3,80,135,80L135,80z"/>
</g>
<g>
	<path fill="#148CC1" d="M175,82c7.2,0,13,5.8,13,13s-5.8,13-13,13s-13-5.8-13-13S167.8,82,175,82 M175,80c-8.3,0-15,6.7-15,15
		c0,8.3,6.7,15,15,15s15-6.7,15-15C190,86.7,183.3,80,175,80L175,80z"/>
</g>
<g>
	<path fill="#148CC1" d="M15,82c7.2,0,13,5.8,13,13s-5.8,13-13,13S2,102.2,2,95S7.8,82,15,82 M15,80C6.7,80,0,86.7,0,95
		c0,8.3,6.7,15,15,15s15-6.7,15-15C30,86.7,23.3,80,15,80L15,80z"/>
</g>
<g>
	<path fill="#148CC1" d="M55,82c7.2,0,13,5.8,13,13s-5.8,13-13,13s-13-5.8-13-13S47.8,82,55,82 M55,80c-8.3,0-15,6.7-15,15
		c0,8.3,6.7,15,15,15s15-6.7,15-15C70,86.7,63.3,80,55,80L55,80z"/>
</g>
<g>
	<path fill="#148CC1" d="M95,82c7.2,0,13,5.8,13,13s-5.8,13-13,13s-13-5.8-13-13S87.8,82,95,82 M95,80c-8.3,0-15,6.7-15,15
		c0,8.3,6.7,15,15,15s15-6.7,15-15C110,86.7,103.3,80,95,80L95,80z"/>
</g>
<g>
	<path fill="#148CC1" d="M135,82c7.2,0,13,5.8,13,13s-5.8,13-13,13s-13-5.8-13-13S127.8,82,135,82 M135,80c-8.3,0-15,6.7-15,15
		c0,8.3,6.7,15,15,15s15-6.7,15-15C150,86.7,143.3,80,135,80L135,80z"/>
</g>
<g>
	<path fill="#148CC1" d="M175,82c7.2,0,13,5.8,13,13s-5.8,13-13,13s-13-5.8-13-13S167.8,82,175,82 M175,80c-8.3,0-15,6.7-15,15
		c0,8.3,6.7,15,15,15s15-6.7,15-15C190,86.7,183.3,80,175,80L175,80z"/>
</g>
<g>
	<path fill="#148CC1" d="M15,122c7.2,0,13,5.8,13,13s-5.8,13-13,13s-13-5.8-13-13S7.8,122,15,122 M15,120c-8.3,0-15,6.7-15,15
		s6.7,15,15,15s15-6.7,15-15S23.3,120,15,120L15,120z"/>
</g>
<g>
	<path fill="#148CC1" d="M55,122c7.2,0,13,5.8,13,13s-5.8,13-13,13s-13-5.8-13-13S47.8,122,55,122 M55,120c-8.3,0-15,6.7-15,15
		s6.7,15,15,15s15-6.7,15-15S63.3,120,55,120L55,120z"/>
</g>
<g>
	<path fill="#148CC1" d="M95,122c7.2,0,13,5.8,13,13s-5.8,13-13,13s-13-5.8-13-13S87.8,122,95,122 M95,120c-8.3,0-15,6.7-15,15
		s6.7,15,15,15s15-6.7,15-15S103.3,120,95,120L95,120z"/>
</g>
<g>
	<path fill="#148CC1" d="M135,122c7.2,0,13,5.8,13,13s-5.8,13-13,13s-13-5.8-13-13S127.8,122,135,122 M135,120c-8.3,0-15,6.7-15,15
		s6.7,15,15,15s15-6.7,15-15S143.3,120,135,120L135,120z"/>
</g>
<g>
	<path fill="#148CC1" d="M175,122c7.2,0,13,5.8,13,13s-5.8,13-13,13s-13-5.8-13-13S167.8,122,175,122 M175,120c-8.3,0-15,6.7-15,15
		s6.7,15,15,15s15-6.7,15-15S183.3,120,175,120L175,120z"/>
</g>
<g>
	<path fill="#148CC1" d="M15,162c7.2,0,13,5.8,13,13s-5.8,13-13,13s-13-5.8-13-13S7.8,162,15,162 M15,160c-8.3,0-15,6.7-15,15
		s6.7,15,15,15s15-6.7,15-15S23.3,160,15,160L15,160z"/>
</g>
<g>
	<path fill="#148CC1" d="M55,162c7.2,0,13,5.8,13,13s-5.8,13-13,13s-13-5.8-13-13S47.8,162,55,162 M55,160c-8.3,0-15,6.7-15,15
		s6.7,15,15,15s15-6.7,15-15S63.3,160,55,160L55,160z"/>
</g>
<g>
	<path fill="#148CC1" d="M95,162c7.2,0,13,5.8,13,13s-5.8,13-13,13s-13-5.8-13-13S87.8,162,95,162 M95,160c-8.3,0-15,6.7-15,15
		s6.7,15,15,15s15-6.7,15-15S103.3,160,95,160L95,160z"/>
</g>
<g>
	<path fill="#148CC1" d="M135,162c7.2,0,13,5.8,13,13s-5.8,13-13,13s-13-5.8-13-13S127.8,162,135,162 M135,160c-8.3,0-15,6.7-15,15
		s6.7,15,15,15s15-6.7,15-15S143.3,160,135,160L135,160z"/>
</g>
<g>
	<path fill="#148CC1" d="M175,162c7.2,0,13,5.8,13,13s-5.8,13-13,13s-13-5.8-13-13S167.8,162,175,162 M175,160c-8.3,0-15,6.7-15,15
		s6.7,15,15,15s15-6.7,15-15S183.3,160,175,160L175,160z"/>
</g>
<g>
	<path fill="#148CC1" d="M15,202c7.2,0,13,5.8,13,13s-5.8,13-13,13s-13-5.8-13-13S7.8,202,15,202 M15,200c-8.3,0-15,6.7-15,15
		s6.7,15,15,15s15-6.7,15-15S23.3,200,15,200L15,200z"/>
</g>
<g>
	<path fill="#148CC1" d="M55,202c7.2,0,13,5.8,13,13s-5.8,13-13,13s-13-5.8-13-13S47.8,202,55,202 M55,200c-8.3,0-15,6.7-15,15
		s6.7,15,15,15s15-6.7,15-15S63.3,200,55,200L55,200z"/>
</g>
<g>
	<path fill="#148CC1" d="M95,202c7.2,0,13,5.8,13,13s-5.8,13-13,13s-13-5.8-13-13S87.8,202,95,202 M95,200c-8.3,0-15,6.7-15,15
		s6.7,15,15,15s15-6.7,15-15S103.3,200,95,200L95,200z"/>
</g>
<g>
	<path fill="#148CC1" d="M135,202c7.2,0,13,5.8,13,13s-5.8,13-13,13s-13-5.8-13-13S127.8,202,135,202 M135,200c-8.3,0-15,6.7-15,15
		s6.7,15,15,15s15-6.7,15-15S143.3,200,135,200L135,200z"/>
</g>
<g>
	<path fill="#148CC1" d="M175,202c7.2,0,13,5.8,13,13s-5.8,13-13,13s-13-5.8-13-13S167.8,202,175,202 M175,200c-8.3,0-15,6.7-15,15
		s6.7,15,15,15s15-6.7,15-15S183.3,200,175,200L175,200z"/>
</g>
<g>
	<path fill="#148CC1" d="M15,202c7.2,0,13,5.8,13,13s-5.8,13-13,13s-13-5.8-13-13S7.8,202,15,202 M15,200c-8.3,0-15,6.7-15,15
		s6.7,15,15,15s15-6.7,15-15S23.3,200,15,200L15,200z"/>
</g>
<g>
	<path fill="#148CC1" d="M55,202c7.2,0,13,5.8,13,13s-5.8,13-13,13s-13-5.8-13-13S47.8,202,55,202 M55,200c-8.3,0-15,6.7-15,15
		s6.7,15,15,15s15-6.7,15-15S63.3,200,55,200L55,200z"/>
</g>
<g>
	<path fill="#148CC1" d="M95,202c7.2,0,13,5.8,13,13s-5.8,13-13,13s-13-5.8-13-13S87.8,202,95,202 M95,200c-8.3,0-15,6.7-15,15
		s6.7,15,15,15s15-6.7,15-15S103.3,200,95,200L95,200z"/>
</g>
<g>
	<path fill="#148CC1" d="M135,202c7.2,0,13,5.8,13,13s-5.8,13-13,13s-13-5.8-13-13S127.8,202,135,202 M135,200c-8.3,0-15,6.7-15,15
		s6.7,15,15,15s15-6.7,15-15S143.3,200,135,200L135,200z"/>
</g>
<g>
	<path fill="#148CC1" d="M175,202c7.2,0,13,5.8,13,13s-5.8,13-13,13s-13-5.8-13-13S167.8,202,175,202 M175,200c-8.3,0-15,6.7-15,15
		s6.7,15,15,15s15-6.7,15-15S183.3,200,175,200L175,200z"/>
</g>
</svg>
