<?xml version="1.0" encoding="utf-8"?>
<!-- Generator: Adobe Illustrator 18.0.0, SVG Export Plug-In . SVG Version: 6.00 Build 0)  -->
<!DOCTYPE svg PUBLIC "-//W3C//DTD SVG 1.1//EN" "http://www.w3.org/Graphics/SVG/1.1/DTD/svg11.dtd">
<svg version="1.1" id="Layer_1" xmlns="http://www.w3.org/2000/svg" xmlns:xlink="http://www.w3.org/1999/xlink" x="0px" y="0px"
	 viewBox="0 0 602 602" enable-background="new 0 0 602 602" xml:space="preserve">
<path fill="none" stroke="#000000" stroke-width="2" stroke-linecap="square" stroke-miterlimit="10" d="M500.6,258.6
	c2.9,13.7,4.4,27.9,4.4,42.4c0,48.6-17.8,92.7-46.2,127.8l-64.5-52.2C411,355.9,421,329.6,421,301c0-8.6-0.9-16.9-2.6-25
	L500.6,258.6z"/>
<path fill="none" stroke="#000000" stroke-width="2" stroke-linecap="square" stroke-miterlimit="10" d="M594.5,238.6
	c4.3,20.1,6.5,41,6.5,62.4c0,71.5-25,137.2-66.8,188.8l-65.3-52.9C499,399.8,517,352.5,517,301c0-15.4-1.6-30.4-4.7-44.9
	L594.5,238.6z"/>
<path fill="none" stroke="#000000" stroke-width="2" stroke-linecap="square" stroke-miterlimit="10" d="M301,421v84
	c-64,0-121.1-29.5-158.5-75.6l65.3-52.9C229.7,403.7,263.3,421,301,421z"/>
<path fill="none" stroke="#000000" stroke-width="2" stroke-linecap="square" stroke-miterlimit="10" d="M301,517v84
	c-94.1,0-178.1-43.4-233.1-111.2l65.3-52.9C172.7,485.8,233.2,517,301,517z"/>
<path fill="none" stroke="#000000" stroke-width="2" stroke-linecap="square" stroke-miterlimit="10" d="M208.4,119.2l38.1,74.9
	c-31.8,16.2-55.3,46.1-62.9,82l-82.2-17.5C114.3,197.6,154.4,146.8,208.4,119.2z"/>
<path fill="none" stroke="#000000" stroke-width="2" stroke-linecap="square" stroke-miterlimit="10" d="M164.8,33.6l38.1,74.9
	c-57.2,29.2-99.6,83.1-113.2,147.6L7.5,238.6C26.5,149,85.4,74.2,164.8,33.6z"/>
<path fill="none" stroke="#000000" stroke-width="2" stroke-linecap="square" stroke-miterlimit="10" d="M393.2,120.1
	c54,27.6,94.5,77.6,107.4,138.5L418.4,276c-7.6-35.8-31.2-65.8-62.9-82L393.2,120.1z"/>
<path fill="none" stroke="#000000" stroke-width="2" stroke-linecap="square" stroke-miterlimit="10" d="M594.5,238.6l-82.2,17.5
	c-13.6-64.5-56.1-118.4-113.2-147.6h0l38.2-74.9C516.6,74.2,575.5,149,594.5,238.6z"/>
<path fill="none" stroke="#000000" stroke-width="2" stroke-miterlimit="10" d="M468.9,436.9l65.3,52.9
	C479.1,557.6,395.1,601,301,601v-84l0,0c25.9,0,50.8-5.6,73.8-14c3.9,4.7,9.7,7.6,16.2,7.6c11.6,0,21-9.4,21-21
	c0-1.4-0.2-2.9-0.4-4.2h0C433.2,472.5,453.1,456.4,468.9,436.9L468.9,436.9z"/>
<path fill="none" stroke="#000000" stroke-width="2" stroke-miterlimit="10" d="M394.3,376.5l64.5,52.2
	c-14.8,18.2-32.7,33.9-52.9,46.1v0c-3.8-3.8-9.1-6.2-14.9-6.2c-11.6,0-21,9.4-21,21c0,0.8,0,1.5,0.1,2.3
	c-21.6,7.8-44.8,13.1-69.1,13.1v-84C338.7,421,372.3,403.7,394.3,376.5z"/>
<path fill="none" stroke="#000000" stroke-width="2" stroke-miterlimit="10" d="M133.1,436.9L133.1,436.9l-65.3,52.9
	C26,438.2,1,372.5,1,301c0-21.4,2.2-42.3,6.5-62.4l82.2,17.5l0,0C86.6,270.5,86,285.7,86,301c0,10.2,0.7,20.3,2.1,30.1
	c-6.7,3.5-11.3,10.5-11.3,18.6c0,11.5,9.3,20.9,20.8,21v0.1C105.8,394.9,117.5,417.6,133.1,436.9z"/>
<path fill="none" stroke="#000000" stroke-width="2" stroke-miterlimit="10" d="M207.7,376.5l-65.3,52.9
	c-14.7-18.1-25.5-39.4-33.3-61.9c5.8-3.7,9.7-10.3,9.7-17.7c0-10.9-8.3-19.8-18.9-20.9c-1.2-9.1-1.9-18.4-1.9-27.9
	c0-14.5,0.5-28.8,3.4-42.4l82.2,17.5c-1.7,8.1-2.6,16.4-2.6,25C181,329.6,191,355.9,207.7,376.5z"/>
<path fill="none" stroke="#000000" stroke-width="2" stroke-miterlimit="10" d="M399.1,108.5c-23.6-12-50.1-18.9-77.7-21.6
	C319.1,77.8,310.9,71,301,71s-18.1,6.8-20.4,15.9c-27.6,2.6-54.1,9.5-77.7,21.6l0,0l-38.1-74.9C205.6,12.8,251.9,1,301,1
	s95.4,11.8,136.2,32.6L399.1,108.5L399.1,108.5z"/>
<path fill="none" stroke="#000000" stroke-width="2" stroke-miterlimit="10" d="M393.2,120.1l-37.7,74
	c-16.3-8.3-34.9-13.1-54.5-13.1s-38.1,4.7-54.5,13.1l-38.1-74.9c22.1-11.3,47-17.7,72.8-20.2c2.9,8.2,10.7,14,19.8,14
	s17-5.9,19.8-14C346.7,101.5,371.1,108.8,393.2,120.1z"/>
</svg>
