<?xml version="1.0" encoding="utf-8"?>
<!-- Generator: Adobe Illustrator 18.0.0, SVG Export Plug-In . SVG Version: 6.00 Build 0)  -->
<!DOCTYPE svg PUBLIC "-//W3C//DTD SVG 1.1//EN" "http://www.w3.org/Graphics/SVG/1.1/DTD/svg11.dtd">
<svg version="1.1" id="Layer_1" xmlns="http://www.w3.org/2000/svg" xmlns:xlink="http://www.w3.org/1999/xlink" x="0px" y="0px"
	 viewBox="0 0 602 602" enable-background="new 0 0 602 602" xml:space="preserve">
<path fill="none" stroke="#000000" stroke-width="2" stroke-linecap="square" stroke-miterlimit="10" d="M500.6,258.6
	c2.9,13.7,4.4,27.9,4.4,42.4c0,48.6-17,93.3-45.5,128.4l-65.3-52.9C411,355.9,421,329.6,421,301c0-8.6-0.9-16.9-2.6-25L500.6,258.6z
	"/>
<path fill="none" stroke="#000000" stroke-width="2" stroke-linecap="square" stroke-miterlimit="10" d="M594.5,238.6
	c4.3,20.1,6.5,41,6.5,62.4c0,71.5-25,137.2-66.8,188.8l-65.3-52.9C499,399.8,517,352.5,517,301c0-15.4-1.6-30.4-4.7-44.9
	L594.5,238.6z"/>
<path fill="none" stroke="#000000" stroke-width="2" stroke-linecap="square" stroke-miterlimit="10" d="M468.9,436.9l65.3,52.9
	C479.1,557.6,395.1,601,301,601v-84C368.8,517,429.3,485.8,468.9,436.9z"/>
<path fill="none" stroke="#000000" stroke-width="2" stroke-linecap="square" stroke-miterlimit="10" d="M459.5,429.4L459.5,429.4
	C422.1,475.5,365,505,301,505v-84c37.7,0,71.3-17.3,93.3-44.5L459.5,429.4z"/>
<path fill="none" stroke="#000000" stroke-width="2" stroke-linecap="square" stroke-miterlimit="10" d="M85,301
	c0,51.5,18,98.8,48.1,135.9l-65.3,52.9C26,438.2,1,372.5,1,301c0-21.4,2.2-42.3,6.5-62.4l82.2,17.5C86.6,270.6,85,285.6,85,301z"/>
<path fill="none" stroke="#000000" stroke-width="2" stroke-linecap="square" stroke-miterlimit="10" d="M181,301
	c0,28.6,10,54.9,26.7,75.5l-65.3,52.9C114,394.3,97,349.6,97,301c0-14.5,1.5-28.7,4.4-42.4l82.2,17.5C181.9,284.1,181,292.4,181,301
	z"/>
<path fill="none" stroke="#000000" stroke-width="2" stroke-linecap="square" stroke-miterlimit="10" d="M437.2,33.6l-38.2,74.9
	C369.6,93.5,336.3,85,301,85c-35.3,0-68.6,8.5-98.1,23.5l-38.1-74.9C205.6,12.8,251.9,1,301,1S396.4,12.8,437.2,33.6z"/>
<path fill="none" stroke="#000000" stroke-width="2" stroke-linecap="square" stroke-miterlimit="10" d="M393.6,119.2l-38.1,74.9
	c-16.3-8.3-34.9-13.1-54.5-13.1s-38.1,4.7-54.5,13.1l-38.1-74.9C236.2,105,267.6,97,301,97S365.8,105,393.6,119.2z"/>
<path fill="none" stroke="#000000" stroke-width="2" stroke-miterlimit="10" d="M301,421v84c-24.3,0-47.5-5.3-69.1-13.1
	c0.1-0.8,0.1-1.5,0.1-2.3c0-11.6-9.4-21-21-21c-5.8,0-11.1,2.4-14.9,6.2c-20.2-12.2-38.9-27.2-53.7-45.4l65.3-52.9
	C229.7,403.7,263.3,421,301,421z"/>
<path fill="none" stroke="#000000" stroke-width="2" stroke-miterlimit="10" d="M301,517v84c-94.1,0-178.1-43.4-233.1-111.2
	l65.3-52.9l0,0c15.8,19.5,35.7,35.5,57.3,48.5c-0.3,1.4-0.4,2.8-0.4,4.2c0,11.6,9.4,21,21,21c6.5,0,12.3-3,16.2-7.6
	C250.2,511.4,275.1,517,301,517L301,517z"/>
<path fill="none" stroke="#000000" stroke-width="2" stroke-miterlimit="10" d="M208.4,119.2l38.1,74.9
	c-31.8,16.2-55.3,46.1-62.9,82l-82.2-17.5c5-23.4,14.9-45.2,27.2-64.8c2.1,0.7,4.3,1,6.6,1c11.6,0,21-9.4,21-21
	c0-4.2-1.2-8.2-3.4-11.5v0C168.8,145.2,187.3,130,208.4,119.2z"/>
<path fill="none" stroke="#000000" stroke-width="2" stroke-miterlimit="10" d="M202.9,108.5L202.9,108.5
	c-22.5,11.5-42.3,27.7-59.3,46c-2.6-1.1-5.4-1.8-8.4-1.8c-11.6,0-21,9.4-21,21c0,4.9,1.7,9.5,4.6,13.1c-13.2,21-23.8,44.2-29.1,69.2
	l0,0L7.5,238.6c19-89.6,77.9-164.4,157.3-205L202.9,108.5z"/>
<path fill="none" stroke="#000000" stroke-width="2" stroke-miterlimit="10" d="M512.3,256.1L512.3,256.1
	c-5.3-25-15.9-48.2-29.1-69.2c2.9-3.6,4.6-8.1,4.6-13.1c0-11.6-9.4-21-21-21c-3,0-5.8,0.6-8.4,1.8c-17.1-18.3-36.8-34.5-59.3-46l0,0
	l38.2-74.9c79.4,40.5,138.3,115.4,157.3,205L512.3,256.1z"/>
<path fill="none" stroke="#000000" stroke-width="2" stroke-miterlimit="10" d="M393.6,119.2c21.1,10.8,39.6,26,55.6,43.1
	c-2.2,3.3-3.4,7.2-3.4,11.5c0,11.6,9.4,21,21,21c2.3,0,4.5-0.4,6.6-1.1c12.3,19.7,22.3,41.4,27.2,64.9L418.4,276
	c-7.6-35.8-31.2-65.8-62.9-82L393.6,119.2z"/>
</svg>
