<?xml version="1.0" encoding="utf-8"?>
<!-- Generator: Adobe Illustrator 18.0.0, SVG Export Plug-In . SVG Version: 6.00 Build 0)  -->
<!DOCTYPE svg PUBLIC "-//W3C//DTD SVG 1.1//EN" "http://www.w3.org/Graphics/SVG/1.1/DTD/svg11.dtd">
<svg version="1.1" id="Layer_1" xmlns="http://www.w3.org/2000/svg" xmlns:xlink="http://www.w3.org/1999/xlink" x="0px" y="0px"
	 viewBox="0 -90 792 792" enable-background="new 0 -90 792 792" xml:space="preserve">
<g id="Layer_5">
	<path fill="none" stroke="#148CC1" stroke-width="2" stroke-miterlimit="10" d="M393.4,673.3c0,15.3-12.4,27.7-27.7,27.7
		c-15.3,0-27.6-12.4-27.6-27.7V-61.4c0-15.3,12.4-27.7,27.6-27.7c15.3,0,27.7,12.4,27.7,27.7V673.3z"/>
	<path fill="#148CC1" d="M393.4,673.3c0,15.8-12.4,27.7-27.7,27.7c-15.3,0-27.6-11.9-27.6-27.7H393.4z"/>
	<polygon fill="#148CC1" points="338.1,678.6 338.1,-61.4 393.4,-6.1 393.4,678.6 	"/>
</g>
<g id="Layer_4">
	<path fill="none" stroke="#000000" stroke-width="2" stroke-miterlimit="10" d="M453.9,673.3c0,15.3-12.4,27.7-27.6,27.7
		c-15.3,0-27.6-12.4-27.6-27.7V-61.4c0-15.3,12.4-27.7,27.6-27.7c15.3,0,27.6,12.4,27.6,27.7V673.3z"/>
	<circle fill="none" stroke="#FF6464" stroke-width="2" stroke-miterlimit="10" cx="426.3" cy="583.6" r="19.8"/>
	<circle fill="none" stroke="#000000" stroke-width="2" stroke-miterlimit="10" cx="426.3" cy="516.4" r="19.8"/>
	<circle fill="none" stroke="#000000" stroke-width="2" stroke-miterlimit="10" cx="426.3" cy="461.1" r="19.8"/>
	<circle fill="none" stroke="#000000" stroke-width="2" stroke-miterlimit="10" cx="426.3" cy="392.6" r="19.8"/>
	<circle fill="#FF0000" stroke="#FF0000" stroke-width="2" stroke-miterlimit="10" cx="426.3" cy="673.3" r="19.8"/>
</g>
</svg>
