<?xml version="1.0" encoding="utf-8"?>
<!-- Generator: Adobe Illustrator 18.0.0, SVG Export Plug-In . SVG Version: 6.00 Build 0)  -->
<!DOCTYPE svg PUBLIC "-//W3C//DTD SVG 1.1//EN" "http://www.w3.org/Graphics/SVG/1.1/DTD/svg11.dtd">
<svg version="1.1" xmlns="http://www.w3.org/2000/svg" xmlns:xlink="http://www.w3.org/1999/xlink" x="0px" y="0px"
	 viewBox="0 0 602 94" enable-background="new 0 0 602 94" xml:space="preserve">
	<g id="Layer_5">
		<path fill="none" stroke="#148CC1" stroke-width="2" stroke-miterlimit="10" d="M22,45C10.4,45,1,35.6,1,24S10.4,3,22,3h558
			c11.6,0,21,9.4,21,21s-9.4,21-21,21H22z"/>
		<path fill="#148CC1" d="M22,45C10,45,1,35.6,1,24S10,3,22,3V45z"/>
		<polygon id="angle" fill="#148CC1" points="18,3 580,3 538,45 18,45 	"/>
		<path fill="none" stroke="#148CC1" stroke-width="2" stroke-miterlimit="10" d="M22,91C10.4,91,1,81.6,1,70s9.4-21,21-21h558
			c11.6,0,21,9.4,21,21s-9.4,21-21,21H22z"/>
	</g>
</svg>
