<?xml version="1.0" encoding="utf-8"?>
<!-- Generator: Adobe Illustrator 18.0.0, SVG Export Plug-In . SVG Version: 6.00 Build 0)  -->
<!DOCTYPE svg PUBLIC "-//W3C//DTD SVG 1.1//EN" "http://www.w3.org/Graphics/SVG/1.1/DTD/svg11.dtd">
<svg version="1.1" xmlns="http://www.w3.org/2000/svg" xmlns:xlink="http://www.w3.org/1999/xlink" x="0px" y="0px"
	 viewBox="0 0 602 602" enable-background="new 0 0 602 602" xml:space="preserve">
<g>
	<path fill="none" stroke="#000000" stroke-width="2" stroke-miterlimit="10" d="M499.6,258.8c2.9,13.6,4.4,27.7,4.4,42.2
		c0,9.5-0.6,18.8-1.9,27.9c-4.6,0.5-9.2,2.5-12.7,6c-8.2,8.2-8.2,21.5,0,29.7c1.1,1.1,2.2,2,3.5,2.8c-7.8,22.5-19.4,43.2-34.1,61.3
		l-64.5-52.2C411,355.9,421,329.6,421,301c0-8.6-0.9-16.9-2.6-25L499.6,258.8z"/>
	<path fill="none" stroke="#000000" stroke-width="2" stroke-miterlimit="10" d="M594.5,238.6c4.3,20.1,6.5,41,6.5,62.4
		c0,71.5-25,137.2-66.8,188.8l-65.3-52.9l-0.8-0.6c15.7-19.4,28.1-41.5,36.3-65.5c5.3-0.1,10.6-2.1,14.6-6.1
		c8.2-8.2,8.2-21.5,0-29.7c-1.6-1.6-3.3-2.8-5.2-3.8h0c1.4-9.9,2.1-19.9,2.1-30.1c0-15.3-1.6-30.3-4.7-44.7l1-0.2L594.5,238.6z"/>
	<path fill="none" stroke="#000000" stroke-width="2" stroke-miterlimit="10" d="M468.9,436.9l65.3,52.9
		C479.1,557.6,395.1,601,301,601v-84v-1c25.9,0,50.8-4.6,73.8-13c3.9,4.7,9.7,7.6,16.2,7.6c11.6,0,21-9.4,21-21
		c0-1.4-0.2-2.9-0.4-4.2h0c21.6-13,40.7-29.6,56.5-49.1L468.9,436.9z"/>
	<path fill="none" stroke="#000000" stroke-width="2" stroke-miterlimit="10" d="M394.3,376.5l64.5,52.2
		c-14.8,18.2-32.7,33.9-52.9,46.1v0c-3.8-3.8-9.1-6.2-14.9-6.2c-11.6,0-21,9.4-21,21c0,0.8,0,1.5,0.1,2.3
		c-21.6,7.8-44.8,12.1-69.1,12.1v-83C338.7,421,372.3,403.7,394.3,376.5z"/>
	<path fill="none" stroke="#000000" stroke-width="2" stroke-miterlimit="10" d="M301,421v83c-24.3,0-47.5-4.3-69.1-12.1
		c0.1-0.8,0.1-1.5,0.1-2.3c0-11.6-9.4-21-21-21c-5.8,0-11.1,2.4-14.9,6.2c-20.2-12.2-38.1-27.8-52.9-46.1l64.5-52.2
		C229.7,403.7,263.3,421,301,421z"/>
	<path fill="none" stroke="#000000" stroke-width="2" stroke-miterlimit="10" d="M301,517v84c-94.1,0-178.1-43.4-233.1-111.2
		l65.3-52.9l0.8-0.6c15.8,19.5,34.9,36.1,56.5,49.1c-0.3,1.4-0.4,2.8-0.4,4.2c0,11.6,9.4,21,21,21c6.5,0,12.3-3,16.2-7.6
		c23,8.4,47.9,13,73.8,13V517z"/>
	<path fill="none" stroke="#000000" stroke-width="2" stroke-miterlimit="10" d="M133.9,436.3l-0.8,0.6l-65.3,52.9
		C26,438.2,1,372.5,1,301c0-21.4,2.2-42.3,6.5-62.4l82.2,17.5l1,0.2C87.6,270.7,86,285.7,86,301c0,10.2,0.7,20.3,2.1,30.1
		c-6.7,3.5-11.3,10.5-11.3,18.6c0,11.5,9.3,20.9,20.8,21v0.1C105.8,394.9,118.2,417,133.9,436.3z"/>
	<path fill="none" stroke="#000000" stroke-width="2" stroke-miterlimit="10" d="M207.7,376.5l-64.5,52.2
		c-14.7-18.1-26.3-38.8-34.1-61.3c5.8-3.7,9.7-10.3,9.7-17.7c0-10.9-8.3-19.8-18.9-20.9c-1.2-9.1-1.9-18.4-1.9-27.9
		c0-14.5,1.5-28.6,4.4-42.2l81.2,17.3c-1.7,8.1-2.6,16.4-2.6,25C181,329.6,191,355.9,207.7,376.5z"/>
	<path fill="none" stroke="#000000" stroke-width="2" stroke-miterlimit="10" d="M208.8,120.1l37.7,74c-31.8,16.2-55.3,46.1-62.9,82
		l-81.2-17.3c4.9-23.4,13.9-45.4,26.2-65.1c2.1,0.7,4.3,1,6.6,1c11.6,0,21-9.4,21-21c0-4.2-1.2-8.2-3.4-11.5v0
		C168.8,145.2,187.7,130.9,208.8,120.1z"/>
	<path fill="none" stroke="#000000" stroke-width="2" stroke-miterlimit="10" d="M202.9,108.5l0.4,0.9
		c-22.5,11.5-42.7,26.8-59.8,45.1c-2.6-1.1-5.4-1.8-8.4-1.8c-11.6,0-21,9.4-21,21c0,4.9,1.7,9.5,4.6,13.1
		c-13.2,21-22.8,44.4-28.1,69.4l-1-0.2L7.5,238.6c19-89.6,77.9-164.4,157.3-205L202.9,108.5z"/>
	<path fill="none" stroke="#000000" stroke-width="2" stroke-miterlimit="10" d="M398.6,109.4c-23.6-12-49.6-19.8-77.2-22.4
		C319.1,77.8,310.9,71,301,71s-18.1,6.8-20.4,15.9c-27.6,2.6-53.7,10.4-77.2,22.4l-0.4-0.9l-38.1-74.9C205.6,12.8,251.9,1,301,1
		s95.4,11.8,136.2,32.6l-38.2,74.9L398.6,109.4z"/>
	<path fill="none" stroke="#000000" stroke-width="2" stroke-miterlimit="10" d="M393.2,120.1l-37.7,74
		c-16.3-8.3-34.9-13.1-54.5-13.1s-38.1,4.7-54.5,13.1l-37.7-74c22.1-11.3,46.5-18.6,72.4-21.1c2.9,8.2,10.7,14,19.8,14
		s17-5.9,19.8-14C346.7,101.5,371.1,108.8,393.2,120.1z"/>
	<path fill="none" stroke="#000000" stroke-width="2" stroke-miterlimit="10" d="M512.3,256.1l-1,0.2c-5.3-25-14.9-48.5-28.1-69.4
		c2.9-3.6,4.6-8.1,4.6-13.1c0-11.6-9.4-21-21-21c-3,0-5.8,0.6-8.4,1.8c-17.1-18.3-37.3-33.7-59.8-45.1l0.4-0.9l38.2-74.9
		c79.4,40.5,138.3,115.4,157.3,205L512.3,256.1z"/>
	<path fill="none" stroke="#000000" stroke-width="2" stroke-miterlimit="10" d="M393.2,120.1c21.1,10.8,40,25.1,56,42.2
		c-2.2,3.3-3.4,7.2-3.4,11.5c0,11.6,9.4,21,21,21c2.3,0,4.5-0.4,6.6-1.1c12.3,19.7,21.3,41.6,26.2,65.1L418.4,276
		c-7.6-35.8-31.2-65.8-62.9-82L393.2,120.1z"/>
</g>
</svg>
