<?xml version="1.0" encoding="utf-8"?>
<!-- Generator: Adobe Illustrator 18.0.0, SVG Export Plug-In . SVG Version: 6.00 Build 0)  -->
<!DOCTYPE svg PUBLIC "-//W3C//DTD SVG 1.1//EN" "http://www.w3.org/Graphics/SVG/1.1/DTD/svg11.dtd">
<svg version="1.1" xmlns="http://www.w3.org/2000/svg" xmlns:xlink="http://www.w3.org/1999/xlink" x="0px" y="0px"
	 viewBox="0 0 602 602" enable-background="new 0 0 602 602" xml:space="preserve">
<g>
	<path fill="none" stroke="#000000" stroke-width="2" stroke-miterlimit="10" d="M499.6,258.8c2.9,13.6,4.4,27.7,4.4,42.2
		c0,9.5-0.6,18.8-1.9,27.9c-4.6,0.5-9.2,2.5-12.7,6c-8.2,8.2-8.2,21.5,0,29.7c1.1,1.1,2.2,2,3.5,2.8c-7.8,22.5-19.4,43.2-34.1,61.3
		l-64.5-52.2C411,355.9,421,329.6,421,301c0-8.6-0.9-16.9-2.6-25L499.6,258.8z"/>
	<path fill="none" stroke="#000000" stroke-width="2" stroke-miterlimit="10" d="M594.5,238.6c4.3,20.1,6.5,41,6.5,62.4
		c0,71.5-25,137.2-66.8,188.8l-65.3-52.9l-0.8-0.6c15.7-19.4,28.1-41.5,36.3-65.5c5.3-0.1,10.6-2.1,14.6-6.1
		c8.2-8.2,8.2-21.5,0-29.7c-1.6-1.6-3.3-2.8-5.2-3.8h0c1.4-9.9,2.1-19.9,2.1-30.1c0-15.3-1.6-30.3-4.7-44.7l1-0.2L594.5,238.6z"/>
	<path fill="none" stroke="#000000" stroke-width="2" stroke-miterlimit="10" d="M468.9,436.9l65.3,52.9
		C479.1,557.6,395.1,601,301,601v-84v-1c25.9,0,50.8-4.6,73.8-13c3.9,4.7,9.7,7.6,16.2,7.6c11.6,0,21-9.4,21-21
		c0-1.4-0.2-2.9-0.4-4.2h0c21.6-13,40.7-29.6,56.5-49.1L468.9,436.9z"/>
	<path fill="none" stroke="#000000" stroke-width="2" stroke-miterlimit="10" d="M394.3,376.5l64.5,52.2
		c-14.8,18.2-32.7,33.9-52.9,46.1v0c-3.8-3.8-9.1-6.2-14.9-6.2c-11.6,0-21,9.4-21,21c0,0.8,0,1.5,0.1,2.3
		c-21.6,7.8-44.8,12.1-69.1,12.1v-83C338.7,421,372.3,403.7,394.3,376.5z"/>
	<path fill="none" stroke="#000000" stroke-width="2" stroke-miterlimit="10" d="M301,421v83c-24.3,0-47.5-4.3-69.1-12.1
		c0.1-0.8,0.1-1.5,0.1-2.3c0-11.6-9.4-21-21-21c-5.8,0-11.1,2.4-14.9,6.2c-20.2-12.2-38.1-27.8-52.9-46.1l64.5-52.2
		C229.7,403.7,263.3,421,301,421z"/>
	<path fill="none" stroke="#000000" stroke-width="2" stroke-miterlimit="10" d="M301,517v84c-94.1,0-178.1-43.4-233.1-111.2
		l65.3-52.9l0.8-0.6c15.8,19.5,34.9,36.1,56.5,49.1c-0.3,1.4-0.4,2.8-0.4,4.2c0,11.6,9.4,21,21,21c6.5,0,12.3-3,16.2-7.6
		c23,8.4,47.9,13,73.8,13V517z"/>
	<path fill="none" stroke="#000000" stroke-width="2" stroke-miterlimit="10" d="M398.6,109.4c-23.6-12-49.6-19.8-77.2-22.4
		C319.1,77.8,310.9,71,301,71s-18.1,6.8-20.4,15.9c-27.6,2.6-54.1,9.5-77.7,21.6l0,0l-38.1-74.9C205.6,12.8,251.9,1,301,1
		s95.4,11.8,136.2,32.6l-38.2,74.9L398.6,109.4z"/>
	<path fill="none" stroke="#000000" stroke-width="2" stroke-miterlimit="10" d="M393.2,120.1l-37.7,74
		c-16.3-8.3-34.9-13.1-54.5-13.1s-38.1,4.7-54.5,13.1l-38.1-74.9c22.1-11.3,47-17.7,72.8-20.2c2.9,8.2,10.7,14,19.8,14
		s17-5.9,19.8-14C346.7,101.5,371.1,108.8,393.2,120.1z"/>
	<path fill="none" stroke="#000000" stroke-width="2" stroke-miterlimit="10" d="M512.3,256.1l-1,0.2c-5.3-25-14.9-48.5-28.1-69.4
		c2.9-3.6,4.6-8.1,4.6-13.1c0-11.6-9.4-21-21-21c-3,0-5.8,0.6-8.4,1.8c-17.1-18.3-37.3-33.7-59.8-45.1l0.4-0.9l38.2-74.9
		c79.4,40.5,138.3,115.4,157.3,205L512.3,256.1z"/>
	<path fill="none" stroke="#000000" stroke-width="2" stroke-miterlimit="10" d="M393.2,120.1c21.1,10.8,40,25.1,56,42.2
		c-2.2,3.3-3.4,7.2-3.4,11.5c0,11.6,9.4,21,21,21c2.3,0,4.5-0.4,6.6-1.1c12.3,19.7,21.3,41.6,26.2,65.1L418.4,276
		c-7.6-35.8-31.2-65.8-62.9-82L393.2,120.1z"/>
	<path fill="none" stroke="#000000" stroke-width="2" stroke-linecap="square" stroke-miterlimit="10" d="M85,301
		c0,51.5,18.8,98.2,48.9,135.3l-66.1,53.5C26,438.2,1,372.5,1,301c0-21.4,2.2-42.3,6.5-62.4l82.2,17.5C86.6,270.6,85,285.6,85,301z"
		/>
	<path fill="none" stroke="#000000" stroke-width="2" stroke-linecap="square" stroke-miterlimit="10" d="M181,301
		c0,28.6,10,54.9,26.7,75.5l-64.5,52.2C114.8,393.7,97,349.6,97,301c0-14.5,1.5-28.7,4.4-42.4l82.2,17.5
		C181.9,284.1,181,292.4,181,301z"/>
	<path fill="none" stroke="#000000" stroke-width="2" stroke-linecap="square" stroke-miterlimit="10" d="M208.4,119.2l38.1,74.9
		c-31.8,16.2-55.3,46.1-62.9,82l-82.2-17.5C114.3,197.6,154.4,146.8,208.4,119.2z"/>
	<path fill="none" stroke="#000000" stroke-width="2" stroke-linecap="square" stroke-miterlimit="10" d="M164.8,33.6l38.1,74.9
		c-57.2,29.2-99.6,83.1-113.2,147.6L7.5,238.6C26.5,149,85.4,74.2,164.8,33.6z"/>
</g>
</svg>
