<?xml version="1.0" encoding="utf-8"?>
<!-- Generator: Adobe Illustrator 18.0.0, SVG Export Plug-In . SVG Version: 6.00 Build 0)  -->
<!DOCTYPE svg PUBLIC "-//W3C//DTD SVG 1.1//EN" "http://www.w3.org/Graphics/SVG/1.1/DTD/svg11.dtd">
<svg version="1.1" id="Layer_1" xmlns="http://www.w3.org/2000/svg" xmlns:xlink="http://www.w3.org/1999/xlink" x="0px" y="0px"
	 viewBox="0 0 602 602" enable-background="new 0 0 602 602" xml:space="preserve">
<path fill="none" stroke="#000000" stroke-width="2" stroke-linecap="square" stroke-miterlimit="10" d="M500.6,258.6
	c2.9,13.7,4.4,27.9,4.4,42.4c0,48.6-17,93.3-45.5,128.4l-65.3-52.9C411,355.9,421,329.6,421,301c0-8.6-0.9-16.9-2.6-25L500.6,258.6z
	"/>
<path fill="none" stroke="#000000" stroke-width="2" stroke-linecap="square" stroke-miterlimit="10" d="M594.5,238.6
	c4.3,20.1,6.5,41,6.5,62.4c0,71.5-25,137.2-66.8,188.8l-65.3-52.9C499,399.8,517,352.5,517,301c0-15.4-1.6-30.4-4.7-44.9
	L594.5,238.6z"/>
<path fill="none" stroke="#000000" stroke-width="2" stroke-linecap="square" stroke-miterlimit="10" d="M468.9,436.9l65.3,52.9
	C479.1,557.6,395.1,601,301,601v-84C368.8,517,429.3,485.8,468.9,436.9z"/>
<path fill="none" stroke="#000000" stroke-width="2" stroke-linecap="square" stroke-miterlimit="10" d="M459.5,429.4L459.5,429.4
	C422.1,475.5,365,505,301,505v-84c37.7,0,71.3-17.3,93.3-44.5L459.5,429.4z"/>
<path fill="none" stroke="#000000" stroke-width="2" stroke-linecap="square" stroke-miterlimit="10" d="M301,421v84
	c-64,0-121.1-29.5-158.5-75.6l65.3-52.9C229.7,403.7,263.3,421,301,421z"/>
<path fill="none" stroke="#000000" stroke-width="2" stroke-linecap="square" stroke-miterlimit="10" d="M301,517v84
	c-94.1,0-178.1-43.4-233.1-111.2l65.3-52.9C172.7,485.8,233.2,517,301,517z"/>
<path fill="none" stroke="#000000" stroke-width="2" stroke-linecap="square" stroke-miterlimit="10" d="M85,301
	c0,51.5,18,98.8,48.1,135.9l-65.3,52.9C26,438.2,1,372.5,1,301c0-21.4,2.2-42.3,6.5-62.4l82.2,17.5C86.6,270.6,85,285.6,85,301z"/>
<path fill="none" stroke="#000000" stroke-width="2" stroke-linecap="square" stroke-miterlimit="10" d="M181,301
	c0,28.6,10,54.9,26.7,75.5l-65.3,52.9C114,394.3,97,349.6,97,301c0-14.5,1.5-28.7,4.4-42.4l82.2,17.5C181.9,284.1,181,292.4,181,301
	z"/>
<path fill="none" stroke="#000000" stroke-width="2" stroke-linecap="square" stroke-miterlimit="10" d="M208.4,119.2l38.1,74.9
	c-31.8,16.2-55.3,46.1-62.9,82l-82.2-17.5C114.3,197.6,154.4,146.8,208.4,119.2z"/>
<path fill="none" stroke="#000000" stroke-width="2" stroke-linecap="square" stroke-miterlimit="10" d="M164.8,33.6l38.1,74.9
	c-57.2,29.2-99.6,83.1-113.2,147.6L7.5,238.6C26.5,149,85.4,74.2,164.8,33.6z"/>
<path fill="none" stroke="#000000" stroke-width="2" stroke-linecap="square" stroke-miterlimit="10" d="M393.6,119.2
	c54,27.6,94.1,78.4,106.9,139.4L418.4,276c-7.6-35.8-31.2-65.8-62.9-82L393.6,119.2z"/>
<path fill="none" stroke="#000000" stroke-width="2" stroke-linecap="square" stroke-miterlimit="10" d="M594.5,238.6l-82.2,17.5
	c-13.6-64.5-56.1-118.4-113.2-147.6h0l38.2-74.9C516.6,74.2,575.5,149,594.5,238.6z"/>
<path fill="none" stroke="#000000" stroke-width="2" stroke-miterlimit="10" d="M399.1,108.5c-23.6-12-50.1-18.9-77.7-21.6
	C319.1,77.8,310.9,71,301,71s-18.1,6.8-20.4,15.9c-27.6,2.6-54.1,9.5-77.7,21.6l0,0l-38.1-74.9C205.6,12.8,251.9,1,301,1
	s95.4,11.8,136.2,32.6L399.1,108.5L399.1,108.5z"/>
<path fill="none" stroke="#000000" stroke-width="2" stroke-miterlimit="10" d="M393.6,119.2l-38.1,74.9
	c-16.3-8.3-34.9-13.1-54.5-13.1s-38.1,4.7-54.5,13.1l-38.1-74.9c22.1-11.3,47-17.7,72.8-20.2c2.9,8.2,10.7,14,19.8,14
	s17-5.9,19.8-14C346.7,101.5,371.5,107.9,393.6,119.2z"/>
</svg>
