<?xml version="1.0" encoding="utf-8"?>
<!-- Generator: Adobe Illustrator 18.0.0, SVG Export Plug-In . SVG Version: 6.00 Build 0)  -->
<!DOCTYPE svg PUBLIC "-//W3C//DTD SVG 1.1//EN" "http://www.w3.org/Graphics/SVG/1.1/DTD/svg11.dtd">
<svg version="1.1" id="Layer_1" xmlns="http://www.w3.org/2000/svg" xmlns:xlink="http://www.w3.org/1999/xlink" x="0px" y="0px"
	 viewBox="0 0 602 602" enable-background="new 0 0 602 602" xml:space="preserve">
<path fill="none" stroke="#000000" stroke-width="2" stroke-linecap="square" stroke-miterlimit="10" d="M500.6,258.6
	c2.9,13.7,4.4,27.9,4.4,42.4c0,48.6-17,93.3-45.5,128.4l-65.3-52.9C411,355.9,421,329.6,421,301c0-8.6-0.9-16.9-2.6-25L500.6,258.6z
	"/>
<path fill="none" stroke="#000000" stroke-width="2" stroke-linecap="square" stroke-miterlimit="10" d="M594.5,238.6
	c4.3,20.1,6.5,41,6.5,62.4c0,71.5-25,137.2-66.8,188.8l-65.3-52.9C499,399.8,517,352.5,517,301c0-15.4-1.6-30.4-4.7-44.9
	L594.5,238.6z"/>
</svg>
